<svg xmlns="http://www.w3.org/2000/svg" version="1.1" xmlns:xlink="http://www.w3.org/1999/xlink" xmlns:svgjs="http://svgjs.dev/svgjs" width="1000" height="244" viewBox="0 0 1000 244"><g transform="matrix(1,0,0,1,-0.6056348047761162,-0.5721015706982087)"><svg viewBox="0 0 396 97" data-background-color="#ffffff" preserveAspectRatio="xMidYMid meet" height="244" width="1000" xmlns="http://www.w3.org/2000/svg" xmlns:xlink="http://www.w3.org/1999/xlink"><defs></defs><g id="tight-bounds" transform="matrix(1,0,0,1,0.24008861730862918,0.22743382113822008)"><svg viewBox="0 0 395.52 96.54513235772357" height="96.54513235772357" width="395.52"><g><svg viewBox="0 0 395.52 96.54513235772357" height="96.54513235772357" width="395.52"><g><svg viewBox="0 0 395.52 96.54513235772357" height="96.54513235772357" width="395.52"><g><svg viewBox="0 0 395.52 96.54513235772357" height="96.54513235772357" width="395.52"><g><svg viewBox="0 0 395.52 96.54513235772357" height="96.54513235772357" width="395.52"><path d="M394.594 20.707C392.735 10.686 387.435 7.9 387.435 7.9 371.165-2.422 350.86-0.197 332.619 1.286 300.414 1.346 268.339 3.551 236.208 4.733 168.767 4.913 100.749 1.947 33.643 9.263 27.339 11.507-6.54 9.704 1.121 21.99 3.129 27.101 10.456 32.773 10.232 37.463 11.236 38.285 12.631 36.401 13.226 37.583 15.309 40.77 18.711 39.267 21.501 41.151 17.614 46.181 20.403 50.37 23.062 54.76 18.377 55.902 12.371 55.361 9.675 59.149 9.396 61.895 7.89 61.374 6.235 61.253 5.026 61.173 2.59 61.474 2.999 62.336 4.394 65.282-1.594 66.986 2.162 69.872-0.422 72.998 3.948 75.704 3.353 79.091 3.278 79.773 3.687 80.354 4.338 80.515 7.22 81.376 3.018 83.06 3.464 84.884 33.029 97.35 65.104 88.732 95.394 94.464 103.259 90.456 97.346 95.887 100.489 95.045 102.943 94.063 104.728 98.132 107.499 95.827 107.927 95.166 107.276 93.602 108.8 93.903 109.6 94.063 110.307 94.023 110.418 93.101 110.586 91.718 109.117 92.58 108.726 91.859 112.947 88.211 111.906 96.889 115.866 96.529 115.68 95.466 114.528 93.943 116.889 94.144 119.232 92.62 119.306 91.358 121.389 94.785 121.463 95.526 121.835 96.048 122.43 96.408 128.938 92.68 135.409 97.731 142.233 96.048 146.417 94.204 150.433 97.05 154.672 96.348 156.16 95.787 157.666 94.785 159.098 96.468 176.632 96.829 195.319 95.326 211.943 96.529 256.364 94.284 303.836 97.451 350.674 94.484 361.719 93.342 373.192 91.718 383.958 90.416 383.958 90.416 392.679 86.848 392.679 70.814S394.538 56.784 394.817 44.017C395.096 31.25 396.398 30.728 394.538 20.707Z" opacity="1" fill="#ed2647" data-fill-palette-color="tertiary"></path><g transform="matrix(1,0,0,1,55.76832,26.230666666666668)"><svg width="283.98335999999995" viewBox="0 -36.25 288.26 44.75" height="44.08379902439024" data-palette-color="#ffffff"><path d="M34.5 0L26.34 0 23.75-8.5 10.74-8.5 8.15 0 0 0 12.6-35.84 21.85-35.84 34.5 0ZM12.65-14.84L21.95-14.84Q18.36-26.39 17.91-27.91 17.46-29.42 17.26-30.3L17.26-30.3Q16.46-27.17 12.65-14.84L12.65-14.84ZM52.76-29.39L52.76 0 45.19 0 45.19-29.39 35.5-29.39 35.5-35.69 62.45-35.69 62.45-29.39 52.76-29.39ZM100.34-17.9L100.34-17.9Q100.34-9.03 95.94-4.27 91.55 0.49 83.34 0.49L83.34 0.49Q75.14 0.49 70.75-4.27 66.35-9.03 66.35-17.94L66.35-17.94Q66.35-26.86 70.76-31.56 75.17-36.25 83.39-36.25L83.39-36.25Q91.62-36.25 95.98-31.52 100.34-26.78 100.34-17.9ZM74.29-17.9L74.29-17.9Q74.29-11.91 76.56-8.89 78.83-5.86 83.34-5.86L83.34-5.86Q92.4-5.86 92.4-17.9L92.4-17.9Q92.4-29.96 83.39-29.96L83.39-29.96Q78.88-29.96 76.58-26.92 74.29-23.88 74.29-17.9ZM131-6.25L131 0 104.44 0 104.44-4.91 121.55-29.44 104.9-29.44 104.9-35.69 130.53-35.69 130.53-30.81 113.44-6.25 131-6.25ZM169.08-17.9L169.08-17.9Q169.08-11.6 166.85-7.34 164.61-3.08 160.29-1.1L160.29-1.1 168.89 8.5 159.19 8.5 152.65 0.49 152.09 0.49Q143.89 0.49 139.49-4.27 135.1-9.03 135.1-17.94L135.1-17.94Q135.1-26.86 139.5-31.56 143.91-36.25 152.14-36.25L152.14-36.25Q160.37-36.25 164.72-31.52 169.08-26.78 169.08-17.9ZM143.03-17.9L143.03-17.9Q143.03-11.91 145.3-8.89 147.57-5.86 152.09-5.86L152.09-5.86Q161.15-5.86 161.15-17.9L161.15-17.9Q161.15-29.96 152.14-29.96L152.14-29.96Q147.62-29.96 145.33-26.92 143.03-23.88 143.03-17.9ZM174.84-3.49L174.84-3.49Q174.84-5.54 175.94-6.59 177.04-7.64 179.14-7.64L179.14-7.64Q181.16-7.64 182.28-6.57 183.39-5.49 183.39-3.49L183.39-3.49Q183.39-1.56 182.26-0.45 181.14 0.66 179.14 0.66L179.14 0.66Q177.09 0.66 175.96-0.43 174.84-1.51 174.84-3.49ZM201.23 0.49L201.23 0.49Q188.49 0.49 188.49-13.5L188.49-13.5Q188.49-20.46 191.95-24.13 195.42-27.81 201.89-27.81L201.89-27.81Q206.63-27.81 210.39-25.95L210.39-25.95 208.19-20.19Q206.43-20.9 204.92-21.35 203.4-21.8 201.89-21.8L201.89-21.8Q196.08-21.8 196.08-13.55L196.08-13.55Q196.08-5.54 201.89-5.54L201.89-5.54Q204.04-5.54 205.87-6.12 207.7-6.69 209.53-7.91L209.53-7.91 209.53-1.54Q207.72-0.39 205.88 0.05 204.04 0.49 201.23 0.49ZM221.78-13.7L221.78-13.7Q221.78-9.64 223.11-7.57 224.45-5.49 227.45-5.49L227.45-5.49Q230.43-5.49 231.73-7.56 233.04-9.62 233.04-13.7L233.04-13.7Q233.04-17.75 231.72-19.78 230.4-21.8 227.4-21.8L227.4-21.8Q224.42-21.8 223.1-19.79 221.78-17.77 221.78-13.7ZM240.66-13.7L240.66-13.7Q240.66-7.03 237.14-3.27 233.63 0.49 227.35 0.49L227.35 0.49Q223.42 0.49 220.42-1.23 217.41-2.95 215.8-6.18 214.19-9.4 214.19-13.7L214.19-13.7Q214.19-20.39 217.68-24.1 221.17-27.81 227.5-27.81L227.5-27.81Q231.43-27.81 234.43-26.1 237.43-24.39 239.05-21.19 240.66-17.99 240.66-13.7ZM271.24-13.7L271.24 0 263.8 0 263.8-15.94Q263.8-18.9 262.81-20.37 261.82-21.85 259.7-21.85L259.7-21.85Q256.84-21.85 255.55-19.75 254.25-17.65 254.25-12.84L254.25-12.84 254.25 0 246.81 0 246.81-27.29 252.49-27.29 253.5-23.8 253.91-23.8Q255.01-25.68 257.08-26.75 259.16-27.81 261.85-27.81L261.85-27.81Q267.97-27.81 270.15-23.8L270.15-23.8 270.81-23.8Q271.9-25.71 274.04-26.76 276.18-27.81 278.86-27.81L278.86-27.81Q283.5-27.81 285.88-25.43 288.26-23.05 288.26-17.8L288.26-17.8 288.26 0 280.79 0 280.79-15.94Q280.79-18.9 279.8-20.37 278.81-21.85 276.69-21.85L276.69-21.85Q273.95-21.85 272.6-19.9 271.24-17.94 271.24-13.7L271.24-13.7Z" opacity="1" transform="matrix(1,0,0,1,0,0)" fill="#ffffff" class="undefined-text-0" data-fill-palette-color="quaternary" id="text-0"></path></svg></g></svg></g></svg></g></svg></g><g></g></svg></g></svg><rect width="395.52" height="96.54513235772357" fill="none" stroke="none" visibility="hidden"></rect></g></svg></g></svg>