<svg xmlns="http://www.w3.org/2000/svg" viewBox="0 0 512 512" id="best-achievement"><rect width="475" height="472" fill="#faf7f5" rx="27.5" ry="27.5"></rect><path fill="#f5eeec" d="M475 444.5V359.55A97.46 97.46 0 10315.81 472H447.5A27.54 27.54 0 00475 444.5zM20 464.5V47.5A27.54 27.54 0 0147.5 20h420a27.77 27.77 0 016.68.82A27.56 27.56 0 00447.5 0H27.5A27.54 27.54 0 000 27.5v417a27.56 27.56 0 0020.82 26.68A27.77 27.77 0 0120 464.5z"></path><path fill="#9d9ae8" d="M327.5 212a7.5 7.5 0 01-7.5-7.5V97.5a7.5 7.5 0 0115 0v107A7.5 7.5 0 01327.5 212zM475 65V27.5A27.54 27.54 0 00447.5 0H27.5A27.54 27.54 0 000 27.5V65z"></path><path fill="#8481e2" d="M20,47.5A27.54,27.54,0,0,1,47.5,20h420a27.77,27.77,0,0,1,6.68.82A27.56,27.56,0,0,0,447.5,0H27.5A27.54,27.54,0,0,0,0,27.5V65H20Z"></path><path fill="#ffc144" d="M299.75,391.47a7.44,7.44,0,0,0,2.75.53h50a7.5,7.5,0,0,0,7.5-7.5V323.31A97.92,97.92,0,0,0,299.75,391.47Z"></path><rect width="65" height="195" x="295" y="197" fill="#ffcd69" rx="7.5" ry="7.5"></rect><rect width="65" height="115" x="80" y="277" fill="#ffcd69" rx="7.5" ry="7.5"></rect><rect width="65" height="155" x="187.5" y="237" fill="#ffcd69" rx="7.5" ry="7.5"></rect><path fill="#ffc144" d="M352.5 197h-50a7.5 7.5 0 00-7.5 7.5V217h37.5a7.5 7.5 0 017.5 7.5V392h12.5a7.5 7.5 0 007.5-7.5v-180A7.5 7.5 0 00352.5 197zM137.5 277h-50a7.5 7.5 0 00-7.5 7.5V297h37.5a7.5 7.5 0 017.5 7.5V392h12.5a7.5 7.5 0 007.5-7.5v-100A7.5 7.5 0 00137.5 277zM245 237H195a7.5 7.5 0 00-7.5 7.5V257H225a7.5 7.5 0 017.5 7.5V392H245a7.5 7.5 0 007.5-7.5v-140A7.5 7.5 0 00245 237z"></path><rect width="395" height="55" x="40" y="377" fill="#ff7d97" rx="7.5" ry="7.5"></rect><path fill="#ff5d7d" d="M427.5,377h-123a97.56,97.56,0,0,0-5.92,55H427.5a7.5,7.5,0,0,0,7.5-7.5v-40A7.5,7.5,0,0,0,427.5,377Z"></path><path fill="#faf7f5" d="M437.5 40h-10a7.5 7.5 0 010-15h10a7.5 7.5 0 010 15zM397.5 40h-10a7.5 7.5 0 010-15h10a7.5 7.5 0 010 15z"></path><circle cx="414.5" cy="414.5" r="97.5" fill="#a0e5a5"></circle><path fill="#89df8f" d="M414.5,317a97.31,97.31,0,0,0-73.73,33.77A97.45,97.45,0,0,1,478.23,488.23,97.46,97.46,0,0,0,414.5,317Z"></path><path fill="#faf7f5" d="M402.39,449.5a7.5,7.5,0,0,1-5.44-2.34l-27.89-29.44a7.49,7.49,0,1,1,10.88-10.31l22.45,23.69,46.67-49.26a7.5,7.5,0,1,1,10.88,10.32l-52.11,55A7.5,7.5,0,0,1,402.39,449.5Z"></path><path fill="#ff7d97" d="M427.5,90h-100a7.5,7.5,0,0,0-7.5,7.5V165H427.5a7.5,7.5,0,0,0,7.5-7.5v-60A7.5,7.5,0,0,0,427.5,90Z"></path><path fill="#ff5d7d" d="M427.5,90h-100a7.5,7.5,0,0,0-7.5,7.5V110h87.5a7.5,7.5,0,0,1,7.5,7.5V165h12.5a7.5,7.5,0,0,0,7.5-7.5v-60A7.5,7.5,0,0,0,427.5,90Z"></path><path fill="#a0e5a5" d="M207.5 125H123a7.5 7.5 0 010-15h84.5a7.5 7.5 0 010 15zM88.33 125H67.5a7.5 7.5 0 010-15H88.33a7.5 7.5 0 010 15zM207.5 195H67.5a7.5 7.5 0 010-15h140a7.5 7.5 0 010 15zM207.5 160H67.5a7.5 7.5 0 010-15h140a7.5 7.5 0 010 15z"></path></svg>