<svg xmlns="http://www.w3.org/2000/svg" enable-background="new 0 0 64 64" viewBox="0 0 64 64" id="business-insurance"><path fill="#ef6183" d="M3.1 28.11c1.9-2.03 5.05-4.59 8.95-4.67h.18c3.17 0 6.17 1.64 9 4.9.38-5.69 1.75-18.61 6.43-23.77C14.43 6.34 4.09 16.1 3.1 28.11zM36.47 4.6c2.82 2.89 6.28 9.32 6.69 23.6 1.77-1.96 4.72-4.44 8.48-4.6 3.19-.13 6.3 1.42 9.26 4.63C59.97 16.2 49.69 6.42 36.47 4.6z"></path><path fill="#75bba7" d="M33.43,33.8v-8.23l-2.02-0.05v8.18c0.19,0,0.38-0.01,0.58-0.01C32.48,33.69,32.96,33.73,33.43,33.8z"></path><path fill="#ef6183" d="M33.25,4.63V1.01c0-0.55-0.44-1.01-1.01-1.01c-0.55,0-1.01,0.45-1.01,1.01V4.5c-0.58,0.19-1.14,0.51-1.67,1.01
		c-4.43,4.13-5.85,16.66-6.28,22.53c1.9-2.02,5.01-4.52,8.86-4.6h0.26c0.01,0,0.01,0,0.02,0h0.04c3.05,0.05,5.95,1.62,8.68,4.69
		C40.61,10.41,35.32,5.77,33.25,4.63z"></path><path fill="#75bba7" d="M32.42,35.72c-0.01,0-0.02,0-0.02,0c-0.14-0.01-0.27-0.01-0.41-0.01c-4.41,0-8.01,3.59-8.01,8.01
		c0,4.22,3.29,7.68,7.44,7.98v8c0,1.25-1.02,2.28-2.28,2.28c-0.62,0-1.19-0.24-1.62-0.68c-0.42-0.42-0.67-1-0.67-1.6v-1.98
		c0-0.56-0.45-1.01-1.01-1.01c-0.55,0-1.01,0.44-1.01,1.01v1.98c0,1.14,0.44,2.22,1.26,3.04c0.82,0.81,1.9,1.26,3.05,1.26
		c2.37,0,4.3-1.93,4.3-4.3V51.6c3.73-0.68,6.58-3.95,6.58-7.87C40.01,39.44,36.64,35.94,32.42,35.72z M34.27,45.87
		c-0.1,0.25-0.26,0.47-0.45,0.67c-0.2,0.19-0.44,0.34-0.74,0.45c-0.28,0.12-0.61,0.2-0.96,0.23l-0.08,1.18
		c0,0.03-0.01,0.06-0.02,0.08c-0.02,0.02-0.04,0.04-0.07,0.06c-0.04,0.01-0.08,0.02-0.14,0.03c-0.06,0.01-0.14,0.02-0.23,0.02
		c-0.11,0.01-0.21,0-0.28-0.01c-0.07,0-0.13-0.02-0.17-0.04c-0.04-0.02-0.06-0.04-0.08-0.07c-0.01-0.04-0.01-0.07-0.01-0.11
		l0.09-1.12c-0.16-0.02-0.31-0.04-0.44-0.07c-0.14-0.03-0.27-0.07-0.38-0.11c-0.12-0.04-0.22-0.08-0.3-0.12
		c-0.08-0.04-0.14-0.08-0.19-0.12c-0.04-0.04-0.07-0.1-0.09-0.19c-0.02-0.08-0.03-0.2-0.04-0.36c0-0.12,0-0.22,0.01-0.3
		c0-0.08,0.01-0.14,0.03-0.19c0.02-0.04,0.04-0.07,0.07-0.09c0.02-0.02,0.05-0.02,0.09-0.03c0.05,0,0.12,0.03,0.21,0.08
		c0.09,0.05,0.21,0.11,0.35,0.17c0.14,0.06,0.32,0.12,0.52,0.17c0.2,0.05,0.44,0.07,0.72,0.06c0.43-0.01,0.75-0.1,0.95-0.26
		c0.21-0.16,0.3-0.37,0.3-0.65c-0.01-0.17-0.05-0.31-0.15-0.42c-0.09-0.11-0.21-0.21-0.36-0.29c-0.15-0.08-0.32-0.15-0.51-0.22
		c-0.19-0.06-0.38-0.13-0.59-0.2c-0.2-0.07-0.39-0.15-0.59-0.25c-0.19-0.1-0.36-0.22-0.51-0.36c-0.16-0.15-0.28-0.32-0.37-0.53
		c-0.1-0.21-0.15-0.47-0.16-0.78c0-0.27,0.04-0.52,0.12-0.76c0.09-0.22,0.21-0.42,0.38-0.6c0.16-0.17,0.37-0.31,0.63-0.42
		c0.24-0.11,0.52-0.19,0.85-0.23l0.08-1.11c0-0.03,0.01-0.05,0.02-0.08c0.01-0.02,0.04-0.03,0.07-0.05
		c0.03-0.02,0.08-0.03,0.14-0.04c0.06-0.01,0.13-0.01,0.23-0.02c0.11,0,0.2,0,0.28,0.01c0.07,0.01,0.13,0.02,0.17,0.04
		c0.04,0.02,0.07,0.05,0.08,0.08c0.01,0.03,0.02,0.07,0.02,0.11l-0.09,1.04c0.11,0.01,0.21,0.03,0.33,0.05
		c0.11,0.03,0.22,0.05,0.31,0.08c0.1,0.04,0.19,0.07,0.27,0.11c0.08,0.03,0.14,0.07,0.17,0.1c0.03,0.03,0.06,0.06,0.08,0.09
		c0.01,0.03,0.03,0.06,0.04,0.11c0.01,0.04,0.01,0.1,0.02,0.16c0.01,0.07,0.01,0.14,0.01,0.22v0.28c0,0.07-0.01,0.13-0.03,0.17
		c-0.01,0.04-0.03,0.06-0.04,0.07c-0.02,0.02-0.04,0.02-0.07,0.03c-0.04,0-0.11-0.03-0.21-0.07c-0.09-0.04-0.2-0.09-0.33-0.14
		c-0.14-0.06-0.29-0.1-0.47-0.14c-0.17-0.05-0.36-0.07-0.57-0.06c-0.19,0-0.35,0.03-0.48,0.07c-0.13,0.04-0.24,0.09-0.32,0.16
		c-0.08,0.06-0.14,0.14-0.18,0.24c-0.04,0.09-0.06,0.19-0.05,0.3c0,0.17,0.05,0.31,0.14,0.42c0.1,0.12,0.22,0.21,0.37,0.29
		c0.16,0.08,0.33,0.15,0.52,0.22c0.19,0.06,0.39,0.13,0.6,0.2c0.2,0.07,0.39,0.16,0.6,0.25c0.19,0.1,0.36,0.21,0.52,0.36
		c0.15,0.14,0.27,0.32,0.37,0.52c0.09,0.21,0.15,0.46,0.15,0.76C34.42,45.33,34.37,45.62,34.27,45.87z"></path></svg>