<svg xmlns="http://www.w3.org/2000/svg" viewBox="0 0 64 64" id="checkmarkss"><path fill="#ffb62a" d="m57.63 12.07-6.4-.96-2.92-5.5-2.92 5.5-6.53.96 4.72 4.6-1.12 6.46 5.84-3.05 5.84 3.05-1.12-6.46 4.61-4.6zm-34.06 0-6.53-.96-2.92-5.5-2.92 5.5-6.51.96 4.7 4.6-1.12 6.46 5.84-3.05 5.84 3.05-1.12-6.46 4.74-4.6zm0 0"></path><path fill="#ffb62a" d="m18.84 16.67 1.12 6.46-5.84-3.05V5.61l2.92 5.5 6.53.96-4.73 4.6zm0 0"></path><path fill="#f2f2f2" d="M40.54 27.36c-.87 0-1.55-.68-1.55-1.55v-1.55H23.44v1.55c0 .87-.68 1.55-1.55 1.55h-4.66v13.71c0 8.24 5.59 15.45 13.61 17.47l.37.09.37-.09c8.02-2.02 13.61-9.24 13.61-17.47V27.36h-4.65zm0 0"></path><path fill="#e7e7f2" d="M45.2 27.36v13.71c0 8.24-5.59 15.45-13.61 17.47l-.37.09V24.25h7.77v1.55c0 .87.68 1.55 1.55 1.55h4.66zm0 0"></path><path fill="#26bfa6" d="M40.54 30.47c-2.02 0-3.76-1.31-4.38-3.11h-9.88a4.649 4.649 0 0 1-4.38 3.11h-1.55v10.61c0 6.68 4.44 12.56 10.88 14.37 6.43-1.8 10.88-7.69 10.88-14.37V30.47h-1.57zm0 0"></path><path fill="#26bfa6" d="M42.09 30.47v10.61c0 6.68-4.44 12.56-10.88 14.37V27.36h4.94c.62 1.8 2.36 3.11 4.38 3.11h1.56zm0 0"></path><path fill="#ffb62a" d="m40.66 12.07-6.53-.96-2.92-5.5-2.92 5.5-6.53.96 4.72 4.6-1.12 6.46 5.84-3.05 5.84 3.05-1.12-6.46 4.74-4.6zm0 0"></path><path fill="#f2f2f2" d="m36.96 39.43-5.75 5.78-1.55 1.55-4.2-4.23 2.18-2.18 2.02 1.99 1.55-1.55 3.57-3.54 2.18 2.18zm0 0"></path><path fill="#ffb62a" d="m37.05 23.13-5.84-3.05V5.61l2.92 5.5 6.53.96-4.72 4.6 1.11 6.46zm0 0"></path><path fill="#e7e7f2" d="m36.96 39.43-5.75 5.78V40.8l3.57-3.54 2.18 2.17zm0 0"></path></svg>