<svg xmlns="http://www.w3.org/2000/svg" viewBox="0 0 64 64" id="elearning"><rect width="32" height="58" x="9" y="3" fill="#01cadb" rx="4"></rect><path fill="#1d252d" d="M28.788 8h-7.576a3.136 3.136 0 0 1-2.744-1.942L17 3h16l-1.468 3.058A3.136 3.136 0 0 1 28.788 8Z"></path><rect width="34" height="24.565" x="21" y="21.435" fill="#2e3d4c" rx="2"></rect><path fill="#e4f4fd" d="M50.62 18.713A15.947 15.947 0 0 0 38 20.162a15.947 15.947 0 0 0-12.62-1.449.65.65 0 0 0-.38.627v21.481c0 .426.332.741.673.63A16.081 16.081 0 0 1 38 43a16.081 16.081 0 0 1 12.327-1.549c.341.111.673-.2.673-.63V19.34a.65.65 0 0 0-.38-.627Z"></path><path fill="#fff" d="M31 56a1 1 0 0 0 0 2h6a1 1 0 0 0 0-2Z"></path><circle cx="27" cy="57" r="1" fill="#fff"></circle><path fill="#a4c0d8" d="M48.124 23.327a17.145 17.145 0 0 0-7.439.8 1 1 0 1 0 .63 1.9 15.1 15.1 0 0 1 6.561-.716 1 1 0 0 0 .248-1.985zm0 5.13a16.967 16.967 0 0 0-7.442.814 1 1 0 0 0 .636 1.9 15.029 15.029 0 0 1 6.558-.726 1 1 0 0 0 .248-1.984zm-.248 7.555a1 1 0 0 0 .248-1.985 16.99 16.99 0 0 0-7.442.814 1 1 0 1 0 .636 1.9 14.925 14.925 0 0 1 6.558-.729zM37 19.689v22.836c.333.155.666.3 1 .475.334-.179.667-.32 1-.475V19.689c-.333.155-.666.294-1 .473-.334-.179-.667-.318-1-.473zm-9.992 4.753a1 1 0 0 0 1.116.87 15.124 15.124 0 0 1 6.561.716 1 1 0 1 0 .63-1.9 17.118 17.118 0 0 0-7.439-.8 1 1 0 0 0-.868 1.114zm1.116 5.999a15 15 0 0 1 6.558.726 1 1 0 1 0 .636-1.9 17 17 0 0 0-7.442-.814 1 1 0 0 0 .248 1.984zm0 5.571a14.957 14.957 0 0 1 6.558.725 1 1 0 1 0 .636-1.9 16.991 16.991 0 0 0-7.442-.814 1 1 0 0 0 .248 1.985z"></path></svg>