<svg xmlns="http://www.w3.org/2000/svg" viewBox="0 0 64 64" id="deposit"><path fill="#fdc300" d="M27.41,30a11,11,0,0,1,0-20A1,1,0,0,0,28,9.09a1,1,0,0,0-.58-.91A13,13,0,1,0,22,33a13.07,13.07,0,0,0,5.41-1.18,1,1,0,0,0,.58-.91A1,1,0,0,0,27.41,30Z"></path><path fill="#f9b000" d="M37.42,30a11.08,11.08,0,0,1-4.59-3.92,10.77,10.77,0,0,1-1.34-2.85c-.08-.25-.15-.51-.21-.74s-.11-.54-.15-.85-.06-.46-.08-.7S31,20.32,31,20a11,11,0,0,1,6.41-10A1,1,0,0,0,38,9.09a1,1,0,0,0-.58-.91A13,13,0,0,0,26.57,31.82a13.09,13.09,0,0,0,10.84,0,1,1,0,0,0,0-1.82Z"></path><path fill="#dadada" d="M61,30a.71.71,0,0,0,0-.21.85.85,0,0,0,0-.17.83.83,0,0,0-.11-.15.64.64,0,0,0-.11-.16,1.1,1.1,0,0,0-.14-.09.76.76,0,0,0-.19-.12h0a.9.9,0,0,0-.16,0A1,1,0,0,0,60,29h-.07c-4.89,0-9.36,3.7-11.29,9H20a10.28,10.28,0,0,0-6.53,2.1L3.33,49.26a1,1,0,0,0,0,1.52l12.6,10a1,1,0,0,0,1.24,0l11-8.7A5.51,5.51,0,0,1,31.52,51h15.1c4.17,0,7.89-2.28,9-5.55l5.29-15.12a1,1,0,0,0,0-.17A.76.76,0,0,0,61,30S61,30,61,30Z"></path><path fill="#646363" d="M60.33,29.06a1,1,0,0,0-1.27.61l-5.3,15.12C52.9,47.27,50,49,46.62,49H31.52a7.36,7.36,0,0,0-4.58,1.52L16.6,58.72,5.55,50l9.21-8.32A8.28,8.28,0,0,1,20,40H49a1,1,0,0,0,0-2H20a10.28,10.28,0,0,0-6.53,2.1L3.33,49.26a1,1,0,0,0,0,1.52l12.6,10a1,1,0,0,0,1.24,0l11-8.7A5.51,5.51,0,0,1,31.52,51h15.1c4.17,0,7.89-2.28,9-5.55l5.29-15.12A1,1,0,0,0,60.33,29.06Z"></path><path fill="#646363" d="M43.39,45h-17a1,1,0,0,1,0-2h17c2.3,0,4.28-1.19,4.61-2.77C49.37,33.72,54.42,29,60,29a1,1,0,0,1,0,2c-4.64,0-8.86,4.06-10,9.65C49.43,43.17,46.67,45,43.39,45Z"></path><path fill="#fff042" d="M52.68,12.6A13,13,0,1,0,55,20,12.83,12.83,0,0,0,52.68,12.6Z"></path><path fill="#f7a600" d="M43,19H41a1,1,0,0,1,0-2h3a1,1,0,0,0,0-2H43V14a1,1,0,0,0-2,0v1a3,3,0,0,0,0,6h2a1,1,0,0,1,0,2H40a1,1,0,0,0,0,2h1v1a1,1,0,0,0,2,0V25a3,3,0,0,0,0-6Z"></path><path fill="#f7a600" d="M42,33A13,13,0,1,1,52.68,12.6,12.83,12.83,0,0,1,55,20,13,13,0,0,1,42,33ZM42,9a11,11,0,1,0,9,4.74A11,11,0,0,0,42,9Z"></path></svg>