<svg xmlns="http://www.w3.org/2000/svg" enable-background="new 0 0 64 64" viewBox="0 0 64 64" id="safe"><path fill="#35b5d2" d="M34,35h10V20H34V35z M39,34c-0.5522461,0-1-0.4477539-1-1c0-0.5523071,0.4477539-1,1-1
			c0.5523071,0,1,0.4476929,1,1C40,33.5522461,39.5523071,34,39,34z M39,30c-0.5522461,0-1-0.4477539-1-1
			c0-0.5523071,0.4477539-1,1-1c0.5523071,0,1,0.4476929,1,1C40,29.5522461,39.5523071,30,39,30z M39,26
			c-0.5522461,0-1-0.4477539-1-1c0-0.5523071,0.4477539-1,1-1c0.5523071,0,1,0.4476929,1,1C40,25.5522461,39.5523071,26,39,26z
			 M42,34c-0.5523071,0-1-0.4477539-1-1c0-0.5523071,0.4476929-1,1-1s1,0.4476929,1,1C43,33.5522461,42.5523071,34,42,34z M42,30
			c-0.5523071,0-1-0.4477539-1-1c0-0.5523071,0.4476929-1,1-1s1,0.4476929,1,1C43,29.5522461,42.5523071,30,42,30z M42,26
			c-0.5523071,0-1-0.4477539-1-1c0-0.5523071,0.4476929-1,1-1s1,0.4476929,1,1C43,25.5522461,42.5523071,26,42,26z M36,21h6
			c0.5522461,0,1,0.4472656,1,1s-0.4477539,1-1,1h-6c-0.5522461,0-1-0.4472656-1-1S35.4477539,21,36,21z M36,24
			c0.5523071,0,1,0.4476929,1,1c0,0.5522461-0.4476929,1-1,1c-0.5522461,0-1-0.4477539-1-1C35,24.4476929,35.4477539,24,36,24z
			 M36,28c0.5523071,0,1,0.4476929,1,1c0,0.5522461-0.4476929,1-1,1c-0.5522461,0-1-0.4477539-1-1
			C35,28.4476929,35.4477539,28,36,28z M36,32c0.5523071,0,1,0.4476929,1,1c0,0.5522461-0.4476929,1-1,1
			c-0.5522461,0-1-0.4477539-1-1C35,32.4476929,35.4477539,32,36,32z"></path><rect width="2" height="4" x="51" y="32" fill="#35b5d2"></rect><circle cx="23" cy="28" r="1" fill="#35b5d2"></circle><rect width="2" height="4" x="51" y="19" fill="#35b5d2"></rect><path fill="#35b5d2" d="M58 5H6C5.4477539 5 5 5.4472656 5 6v42h1v-2c0-3.5262451 2.0396729-6.5828247 5-8.0579224v-2.7432251c-.5577393-.6622314-.8219604-1.5357056-.6811523-2.4019775C10.4072266 32.2565918 10.6547852 31.7676392 11 31.3578491V12c0-.5527344.4477539-1 1-1h40c.4888306 0 .8768921.3572998.9638672.821106C52.9851074 11.8597412 53 11.9122314 53 12v5h1c.5522461 0 1 .4472656 1 1v6c0 .5527344-.4477539 1-1 1h-1v5h1c.5522461 0 1 .4472656 1 1v6c0 .5527344-.4477539 1-1 1h-1v5c0 .0878296-.0148926.1401978-.0361328.178833C52.8768921 43.6426392 52.4888306 44 52 44H31.7701416C31.9170532 44.6439819 32 45.3120728 32 46v2h27V6C59 5.4472656 58.5522461 5 58 5zM32 54c0 .3403931-.0327148.6724854-.079895 1H42v3c0 .5527344.4477539 1 1 1h10c.5522461 0 1-.4472656 1-1v-3h4c.5522461 0 1-.4472656 1-1v-4H32V54zM6 50H5v4c0 .5527344.4477539 1 1 1h.079895C6.0327148 54.6724854 6 54.3403931 6 54V50z"></path><path fill="#35b5d2" d="M25.8618164,30.4726562c0.0783691,0.0507812,0.1235962,0.0812988,0.1697998,0.1068726
			C26.6268311,29.8810425,27,28.9876709,27,28c0-2.2060547-1.7944336-4-4-4s-4,1.7939453-4,4
			c0,0.7977905,0.2406616,1.5378418,0.6445923,2.1624756c0.253418-0.1410522,0.5657349-0.2860718,0.930481-0.4110718
			C20.2171631,29.2573853,20,28.6553955,20,28c0-1.6542969,1.3457031-3,3-3s3,1.3457031,3,3
			c0,0.8016968-0.3204956,1.5270386-0.8345337,2.0657349C25.4490967,30.2116699,25.6831055,30.3578491,25.8618164,30.4726562z"></path><path fill="#35b5d2" d="M51,38h-1c-0.5522461,0-1-0.4472656-1-1v-6c0-0.5527344,0.4477539-1,1-1h1v-5h-1
			c-0.5522461,0-1-0.4472656-1-1v-6c0-0.5527344,0.4477539-1,1-1h1v-4H13v16.9834595
			c0.605957-0.2873535,1.4178467-0.5440063,2.5-0.5440063c0.6869507,0,1.2626953,0.1044312,1.7467651,0.2518311
			C17.088623,29.1542358,17,28.5875854,17,28c0-3.3085938,2.6914062-6,6-6s6,2.6914062,6,6
			c0,1.5510864-0.5965576,2.961853-1.5658569,4.0279541c0.1131592,0.2437744,0.2028198,0.4988403,0.2470093,0.7689209
			c0.1547852,0.9521484-0.1601562,1.9267578-0.8432617,2.6064453l-1.3568726,1.357666l0.2020874,0.5534668
			c0.0131226,0.0358887,0.0170288,0.069519,0.0292969,0.1051636C28.0506592,38.1605225,29.9741821,39.8345947,31.0546265,42H51V38z
			 M46,36c0,0.5527344-0.4477539,1-1,1H33c-0.5522461,0-1-0.4472656-1-1V19c0-0.5527344,0.4477539-1,1-1h12
			c0.5522461,0,1,0.4472656,1,1V36z"></path><path fill="#f2cd41" d="M13,56c-1.1025391,0-2-0.8969727-2-2v-8c0-2.2055664,1.7939453-4,4-4h8c2.2060547,0,4,1.7944336,4,4v8
		c0,1.1030273-0.8974609,2-2,2H13z"></path><g><path fill="#423024" d="M24,39.079895V39c0-0.9750366-0.4746704-1.8343506-1.1973267-2.3826294l2.6273193-2.6273804
			c0.3900146-0.3900146,0.3900146-1.0299683,0-1.4199829c-0.0523682-0.0523682-0.1179199-0.0795288-0.1781616-0.1178589
			c-0.0296021-0.0213013-0.052002-0.0499878-0.0858154-0.0668945c-0.1386719-0.0693359-0.2607422-0.1499023-0.3837891-0.2294922
			C24.3105469,31.8540039,23.6660156,31.4399414,22.5,31.4399414s-1.8144531,0.4135742-2.2871094,0.7158203
			c-0.3955078,0.2519531-0.6337891,0.4042969-1.2226562,0.4042969c-0.5751953,0-0.8105469-0.1508789-1.1992188-0.4003906
			C17.3173828,31.855957,16.6699219,31.4399414,15.5,31.4399414c-1.1660156,0-1.8105469,0.4140625-2.2822266,0.7158203
			c-0.1230469,0.0795898-0.2451172,0.1601562-0.3837891,0.2294922c-0.0338135,0.0169067-0.0562134,0.0455933-0.0858154,0.0668945
			c-0.0602417,0.0383301-0.1257935,0.0654907-0.1781616,0.1178589c-0.3900146,0.3900146-0.3900146,1.0299683,0,1.4199829
			l2.6273193,2.6273804C14.4746704,37.1656494,14,38.0249634,14,39v0.079895C10.6137695,39.567749,8,42.4805298,8,46v8
			c0,2.7568359,2.2431641,5,5,5h12c2.7568359,0,5-2.2431641,5-5v-8C30,42.4805298,27.3862305,39.567749,24,39.079895z M17,38h4
			c0.5517578,0,1,0.4487305,1,1h-6C16,38.4487305,16.4482422,38,17,38z M16.7109375,33.8427734
			c0.4707031,0.3027344,1.1171875,0.7172852,2.2792969,0.7172852c1.1728516,0,1.8232422-0.4150391,2.2988281-0.7182617
			c0.3925781-0.2504883,0.6289062-0.4018555,1.2109375-0.4018555c0.2358398,0,0.4078369,0.0306396,0.5630493,0.0770264
			L20.5799561,36h-3.1599121l-2.4830933-2.4830322c0.1552124-0.0463867,0.3272095-0.0770264,0.5630493-0.0770264
			C16.0830078,33.4399414,16.3193359,33.5913086,16.7109375,33.8427734z M28,54c0,1.6542969-1.3457031,3-3,3H13
			c-1.6542969,0-3-1.3457031-3-3v-8c0-2.7568359,2.2431641-5,5-5h8c2.7568359,0,5,2.2431641,5,5V54z"></path><path fill="#423024" d="M19.6699219,48h-1.3398438C18.1699219,48,18.0546875,47.9511719,18,47.9135742v-0.722168
			c0.0039062-0.0214844,0.0068359-0.0429688,0.0087891-0.0649414C18.0253906,47.0942383,18.1357422,47,18.3300781,47h1.3398438
			c0.1875,0,0.3066406,0.0908203,0.3291016,0.1328125c0.0732422,0.5429688,0.5576172,0.9306641,1.1162109,0.859375
			c0.5478516-0.0688477,0.9355469-0.5688477,0.8671875-1.1166992C21.8613281,45.9078369,21.0337524,45.1622925,20,45.0279541V44
			c0-0.5522461-0.4472656-1-1-1s-1,0.4477539-1,1v1.0267334c-0.9933472,0.1278687-1.7885742,0.8166504-1.9541016,1.725708
			C16,46.9116211,16,47.0449219,16,47.1098633V48c0,1.1030273,1.0449219,2,2.3300781,2h1.3398438
			C19.8300781,50,19.9453125,50.0488281,20,50.0864258v0.8271484C19.9453125,50.9511719,19.8300781,51,19.6699219,51h-1.3398438
			c-0.1943359,0-0.3046875-0.0942383-0.3164062-0.1074219c-0.0595703-0.5483398-0.5498047-0.9472656-1.1015625-0.8867188
			c-0.5488281,0.059082-0.9462891,0.5527344-0.8867188,1.1015625C16.1306763,52.0848389,16.9560547,52.8376465,18,52.9721069V54
			c0,0.5522461,0.4472656,1,1,1s1-0.4477539,1-1v-1.0286255C21.1279297,52.8323364,22,52.0060425,22,51v-1
			C22,48.8969727,20.9550781,48,19.6699219,48z"></path></g></svg>