<svg xmlns="http://www.w3.org/2000/svg" data-name="Layer 13" viewBox="0 0 32 32" id="file-delete"><path fill="#6dd5fa" d="M27.5,11H27a1,1,0,0,1,0-2h0.5A0.5,0.5,0,0,0,28,8.5a1,1,0,0,1,2,0A2.5,2.5,0,0,1,27.5,11Z"></path><path fill="#e6e7e8" d="M25,2H14.829a2.98,2.98,0,0,0-2.122.879L6.879,8.708A2.98,2.98,0,0,0,6,10.829V27a3,3,0,0,0,3,3H25a3,3,0,0,0,3-3V5A3,3,0,0,0,25,2Z"></path><path fill="#6dd5fa" d="M29,9.5a1,1,0,0,1-1-1A0.5,0.5,0,0,0,27.5,8H23a1,1,0,0,1,0-2h4.5A2.5,2.5,0,0,1,30,8.5,1,1,0,0,1,29,9.5Z"></path><path fill="#b7d8e5" d="M15,2a3.415,3.415,0,0,0-1,2.41V8a2.006,2.006,0,0,1-2,2H8.41A3.415,3.415,0,0,0,6,11V10.83a2.956,2.956,0,0,1,.88-2.12l5.83-5.83A2.956,2.956,0,0,1,14.83,2H15Z"></path><path fill="#f85032" d="M15,18H13a3.009,3.009,0,0,0-3-3H8a3.009,3.009,0,0,0-3,3H3a1,1,0,0,0,0,2l0.92,8.2A1.98,1.98,0,0,0,5.9,30h6.2a1.98,1.98,0,0,0,1.98-1.8L15,20A1,1,0,0,0,15,18ZM8,17h2a1,1,0,0,1,1,1H7A1,1,0,0,1,8,17Z"></path></svg>