<svg xmlns="http://www.w3.org/2000/svg" data-name="Layer 1" viewBox="0 0 168 168" id="mutual"><path fill="#2d4356" d="M22 123h25a2 2 0 0 0 0-4H22a2 2 0 1 0 0 4zm91-4H88a2 2 0 0 0 0 4h25a2 2 0 0 0 0-4zm0-16H88a2 2 0 0 0 0 4h25a2 2 0 0 0 0-4zm0-16H88a2 2 0 0 0 0 4h25a2 2 0 0 0 0-4zm0-16H88a2 2 0 0 0 0 4h25a2 2 0 0 0 0-4zm-33 56H55a2 2 0 0 0 0 4h25a2 2 0 0 0 0-4zm0-16H55a2 2 0 1 0 0 4h25a2 2 0 0 0 0-4zm0-16H55a2 2 0 0 0 0 4h25a2 2 0 0 0 0-4zm66 32h-25a2 2 0 0 0 0 4h25a2 2 0 0 0 0-4zm0-16h-25a2 2 0 0 0 0 4h25a2 2 0 0 0 0-4zm0-16h-25a2 2 0 0 0 0 4h25a2 2 0 0 0 0-4zm0-16h-25a2 2 0 0 0 0 4h25a2 2 0 0 0 0-4zm0-16h-25a2 2 0 0 0 0 4h25a2 2 0 1 0 0-4zm-27-14a2 2 0 0 0 2 2h25a2 2 0 0 0 0-4h-25a2 2 0 0 0-2 2z"></path><path fill="#2d4356" d="M33 115a2 2 0 0 0 2-2 24.866 24.866 0 0 1 8.031-16.525c5.442-4.815 13.006-6.663 22.488-5.498a2.001 2.001 0 0 0 2.245-1.946c.002-.119.337-12.043 8.67-18.683 5.459-4.352 13.213-5.522 23.04-3.48a2 2 0 0 0 2.406-2.036c-.005-.126-.393-12.648 7.891-20.485 4.907-4.64 11.925-6.747 20.875-6.278l-2.464 1.106a2 2 0 1 0 1.636 3.65l8-3.59a2 2 0 0 0 .53-3.303l-7.03-6.41a2 2 0 0 0-2.695 2.956l1.73 1.577c-9.849-.42-17.691 2.052-23.33 7.386-7.287 6.893-8.79 16.567-9.082 21.073-9.964-1.634-18.029-.054-24 4.705-7.56 6.024-9.505 15.372-10.005 19.574-9.714-.794-17.633 1.447-23.555 6.685A28.835 28.835 0 0 0 31 113a2 2 0 0 0 2 2zM160 15a3 3 0 1 0-3 3 3.003 3.003 0 0 0 3-3zm-4.5 0a1.5 1.5 0 1 1 1.5 1.5 1.501 1.501 0 0 1-1.5-1.5zM55 51a3 3 0 1 0-3-3 3.003 3.003 0 0 0 3 3zm0-4.5a1.5 1.5 0 1 1-1.5 1.5 1.501 1.501 0 0 1 1.5-1.5zM36 79a3 3 0 1 0-3-3 3.003 3.003 0 0 0 3 3zm0-4.5a1.5 1.5 0 1 1-1.5 1.5 1.501 1.501 0 0 1 1.5-1.5zM72 6a2 2 0 1 0-2-2 2.002 2.002 0 0 0 2 2zm0-3a1 1 0 1 1-1 1 1.001 1.001 0 0 1 1-1zm28 42a2 2 0 1 0-2-2 2.002 2.002 0 0 0 2 2zm0-3a1 1 0 1 1-1 1 1.001 1.001 0 0 1 1-1zM17 31a2 2 0 1 0-2-2 2.002 2.002 0 0 0 2 2zm0-3a1 1 0 1 1-1 1 1.001 1.001 0 0 1 1-1z"></path><circle cx="2" cy="137" r="2" fill="#2d4356"></circle><path fill="#2d4356" d="M11 135H8a2 2 0 0 0 0 4h3a2 2 0 0 0 0-4zm149 0h-3a2 2 0 0 0 0 4h3a2 2 0 0 0 0-4z"></path><circle cx="166" cy="137" r="2" fill="#2d4356"></circle><path fill="#2d4356" d="M150.721 135H17.28a2.017 2.017 0 1 0 0 4H150.72a2.017 2.017 0 1 0 0-4Z"></path><path fill="#0bceb2" d="M49 129a2 2 0 0 0-2-2H22a2 2 0 1 0 0 4h25a2 2 0 0 0 2-2zm39 2h25a2 2 0 0 0 0-4H88a2 2 0 0 0 0 4zm0-16h25a2 2 0 0 0 0-4H88a2 2 0 0 0 0 4zm0-16h25a2 2 0 0 0 0-4H88a2 2 0 0 0 0 4zm0-16h25a2 2 0 0 0 0-4H88a2 2 0 0 0 0 4zm-33 40h25a2 2 0 0 0 0-4H55a2 2 0 1 0 0 4zm0-16h25a2 2 0 0 0 0-4H55a2 2 0 1 0 0 4zm91 12h-25a2 2 0 0 0 0 4h25a2 2 0 0 0 0-4zm0-16h-25a2 2 0 0 0 0 4h25a2 2 0 0 0 0-4zm0-16h-25a2 2 0 0 0 0 4h25a2 2 0 0 0 0-4zm0-16h-25a2 2 0 0 0 0 4h25a2 2 0 0 0 0-4zm0-16h-25a2 2 0 0 0 0 4h25a2 2 0 0 0 0-4zM12.583 70.011l1.487-1.955-.939-.532-.954 2.19h-.032l-.97-2.175-.955.548 1.471 1.909v.031l-2.3-.297v1.064l2.316-.297v.031l-1.487 1.908.892.564 1.018-2.206h.03l.939 2.19.986-.563-1.502-1.878v-.031l2.362.282V69.73l-2.362.312v-.031zM74.777 25.067l-.857 1.099.514.324.586-1.27h.018l.54 1.261.568-.324-.865-1.082v-.018l1.36.163v-.613l-1.36.18v-.018l.856-1.126-.54-.306-.55 1.261h-.018l-.558-1.253-.551.316.848 1.099v.018l-1.325-.171v.613l1.334-.171v.018zM157 48.713V47.67l-2.317.307v-.031l1.459-1.918-.921-.522-.936 2.148h-.032l-.951-2.133-.937.538 1.443 1.872v.031l-2.256-.292v1.043l2.271-.291v.031l-1.458 1.872.875.553.998-2.165h.03l.921 2.149.967-.552-1.473-1.842v-.031l2.317.276zM117.702 21.023l-1.258 1.615.754.477.862-1.867h.025l.795 1.853.834-.476-1.271-1.589v-.027l1.999.239v-.9l-1.999.264v-.026l1.258-1.655-.794-.45-.808 1.853h-.026l-.821-1.84-.808.464 1.245 1.615v.026l-1.947-.251v.9l1.96-.252v.027zM118.154 144h-8.308a2.006 2.006 0 0 0 0 4h8.308a2.006 2.006 0 0 0 0-4zm-60 0h-8.308a2.006 2.006 0 0 0 0 4h8.308a2.006 2.006 0 0 0 0-4zM104 144H64a2 2 0 0 0 0 4h15.94v2H72a2 2 0 0 0 0 4h25a2 2 0 0 0 0-4h-8.94v-2H104a2 2 0 0 0 0-4z"></path></svg>