<svg xmlns="http://www.w3.org/2000/svg" fill-rule="evenodd" stroke-linejoin="round" stroke-miterlimit="2" clip-rule="evenodd" viewBox="0 0 32 32" id="money-bag"><path fill="#ee4036" d="M23,6l0,-2c0,-1.657 -1.343,-3 -3,-3l-8,0c-1.657,0 -3,1.343 -3,3c0,1 0,2 0,2c-0,0.552 0.448,1 1,1c0.552,0 1,-0.448 1,-1c0,0 0,-1 -0,-2c-0,-0.552 0.448,-1 1,-1c0,0 8,0 8,0c0.552,0 1,0.448 1,1l0,2c0,0.552 0.448,1 1,1c0.552,-0 1,-0.448 1,-1Z"></path><path fill="#262261" d="M31,8c0,-0.796 -0.316,-1.559 -0.879,-2.121c-0.562,-0.563 -1.325,-0.879 -2.121,-0.879c-5.154,0 -18.846,0 -24,0c-0.796,-0 -1.559,0.316 -2.121,0.879c-0.563,0.562 -0.879,1.325 -0.879,2.121c0,3.832 0,12.168 -0,16c-0,0.796 0.316,1.559 0.879,2.121c0.562,0.563 1.325,0.879 2.121,0.879c5.154,0 18.846,0 24,-0c0.796,0 1.559,-0.316 2.121,-0.879c0.563,-0.562 0.879,-1.325 0.879,-2.121l-0,-16Z"></path><path fill="#faaf40" d="M15,10.985c-1.656,0 -3,1.345 -3,3c0,1.656 1.344,3 3,3c0,0 2,0 2,0c0.552,0 1,0.448 1,1c0,0.552 -0.448,1 -1,1l-3,0c-0.552,0 -1,0.448 -1,1c0,0.552 0.448,1 1,1l1.008,0l0,1c0,0.552 0.448,1 1,1c0.552,0 1,-0.448 1,-1l0,-1c1.652,-0.004 2.992,-1.347 2.992,-3c0,-1.655 -1.344,-3 -3,-3c-0,0 -2,0 -2,0c-0.552,0 -1,-0.448 -1,-1c0,-0.552 0.448,-1 1,-1l3,0c0.552,0 1,-0.448 1,-1c-0,-0.552 -0.448,-1 -1,-1l-1,0l0,-0.985c0,-0.552 -0.448,-1 -1,-1c-0.552,-0 -1,0.448 -1,1l0,0.985Z"></path></svg>