<svg xmlns="http://www.w3.org/2000/svg" data-name="Layer 2" viewBox="0 0 248.54 248.54" id="money-box"><g data-name="Layer 1"><path fill="#ffa000" d="M125.12,15.38c-35.21,0-63.85,28.64-63.85,63.85,0,23.43,12.7,43.95,31.57,55.05h64.57c18.87-11.11,31.57-31.62,31.57-55.05,0-35.21-28.64-63.85-63.85-63.85Zm29.39,52.68c0,1.04-.85,1.89-1.89,1.89h-8.59c-1.04,0-1.89-.85-1.89-1.89v-4.3c0-3.02-1.25-5.22-3.82-6.74-2.86-1.69-7.3-2.54-13.2-2.54s-10.34,.86-13.2,2.54c-2.57,1.52-3.82,3.72-3.82,6.74,0,2.06,1.18,4.08,3.33,5.69,2.19,1.64,6.34,3.6,13.69,3.6,8.52,0,15.82,2.1,21.11,6.07,5.26,3.94,8.27,9.62,8.27,15.58,0,3.3-.73,8.15-4.2,12.51-3.93,4.94-10.32,7.91-19,8.83v6.16c0,1.04-.85,1.89-1.89,1.89h-8.59c-1.04,0-1.89-.85-1.89-1.89v-6.16c-8.68-.92-15.07-3.89-19-8.83-3.47-4.36-4.2-9.21-4.2-12.51v-4.3c0-1.04,.85-1.89,1.89-1.89h8.59c1.04,0,1.89,.85,1.89,1.89v4.3c0,3.02,1.25,5.22,3.82,6.74,2.86,1.69,7.3,2.54,13.2,2.54s10.34-.86,13.2-2.54c2.57-1.52,3.82-3.72,3.82-6.74,0-2.06-1.18-4.08-3.33-5.69-2.19-1.64-6.34-3.6-13.69-3.6-8.52,0-15.82-2.1-21.11-6.07-5.26-3.94-8.27-9.62-8.27-15.58,0-3.3,.73-8.15,4.2-12.51,3.93-4.94,10.32-7.91,19-8.83v-6.16c0-1.04,.85-1.89,1.89-1.89h8.59c1.04,0,1.89,.85,1.89,1.89v6.16c8.68,.92,15.07,3.89,19,8.83,3.47,4.36,4.2,9.21,4.2,12.51v4.3Z"></path><path fill="#ffca28" d="M198.12,48.39c-3.99-9.43-9.7-17.91-16.98-25.18-7.28-7.28-15.75-12.99-25.18-16.98-9.77-4.13-20.14-6.23-30.84-6.23s-21.07,2.09-30.84,6.23c-9.43,3.99-17.91,9.7-25.18,16.98-7.28,7.28-12.99,15.75-16.98,25.18-4.13,9.77-6.23,20.14-6.23,30.84s2.09,21.07,6.23,30.84c3.82,9.02,9.23,17.16,16.05,24.21h24.66c-18.87-11.11-31.57-31.62-31.57-55.05,0-35.21,28.64-63.85,63.85-63.85s63.85,28.64,63.85,63.85c0,23.43-12.7,43.95-31.57,55.05h24.66c6.83-7.06,12.24-15.19,16.05-24.21,4.13-9.77,6.23-20.14,6.23-30.84s-2.09-21.07-6.23-30.84Z"></path><path fill="#ffca28" d="M131.3,42.42v-6.16c0-1.04-.85-1.89-1.89-1.89h-8.59c-1.04,0-1.89,.85-1.89,1.89v6.16c-8.68,.92-15.07,3.89-19,8.83-3.47,4.36-4.2,9.21-4.2,12.51,0,5.96,3.02,11.64,8.27,15.58,5.3,3.97,12.6,6.07,21.11,6.07,7.35,0,11.5,1.96,13.69,3.6,2.15,1.61,3.33,3.63,3.33,5.69,0,3.02-1.25,5.22-3.82,6.74-2.86,1.69-7.3,2.54-13.2,2.54s-10.34-.86-13.2-2.54c-2.57-1.52-3.82-3.72-3.82-6.74v-4.3c0-1.04-.85-1.89-1.89-1.89h-8.59c-1.04,0-1.89,.85-1.89,1.89v4.3c0,3.3,.73,8.15,4.2,12.51,3.93,4.94,10.32,7.91,19,8.83v6.16c0,1.04,.85,1.89,1.89,1.89h8.59c1.04,0,1.89-.85,1.89-1.89v-6.16c8.68-.92,15.07-3.89,19-8.83,3.47-4.36,4.2-9.21,4.2-12.51,0-5.96-3.02-11.64-8.27-15.58-5.3-3.97-12.6-6.07-21.11-6.07-7.35,0-11.5-1.96-13.69-3.6-2.14-1.61-3.33-3.63-3.33-5.69,0-3.02,1.25-5.22,3.82-6.74,2.86-1.69,7.3-2.54,13.2-2.54s10.34,.86,13.2,2.54c2.57,1.52,3.82,3.72,3.82,6.74v4.3c0,1.04,.85,1.89,1.89,1.89h8.59c1.04,0,1.89-.85,1.89-1.89v-4.3c0-3.3-.73-8.15-4.2-12.51-3.93-4.94-10.32-7.91-19-8.83Z"></path><path fill="#8d6e63" d="M81.59 144.17l-10.02 20.04c-.32.64-.97 1.04-1.69 1.04H17.38v54.01H81.59v-75.1zM14.56 134.53c.11-.06.22-.11.34-.15-.12.04-.23.09-.34.15zM14.12 134.87c.11-.11.22-.21.35-.29-.13.08-.25.18-.35.29zM13.84 135.26c.06-.11.14-.22.22-.32-.08.1-.16.2-.22.32zM15.49 219.27h1.89v-54.01h-3.78v55.9c0-1.04.85-1.89 1.89-1.89zM15.02 134.34c.15-.04.31-.07.47-.07-.16 0-.32.03-.47.07z"></path><polygon fill="#8d6e63" points="83.48 140.39 81.59 144.17 81.59 219.27 83.48 219.27 83.48 140.39"></polygon><path fill="#5d4037" d="M233.05 219.27H83.48v29.27H233.05c1.04 0 1.89-.85 1.89-1.89v-25.5c0-1.04-.85-1.89-1.89-1.89zM248.34 162.52l-13.6-27.2s-.03-.04-.04-.06c-.06-.11-.14-.22-.22-.32-.02-.03-.04-.05-.06-.08-.11-.11-.22-.21-.35-.29-.03-.02-.06-.03-.09-.05-.11-.06-.22-.11-.34-.15-.04-.01-.08-.03-.12-.04-.15-.04-.31-.07-.47-.07H83.48v6.11l1.89 3.78 10.02 20.04c.32.64.97 1.04 1.69 1.04H246.65c.65 0 1.26-.34 1.61-.9.34-.56.38-1.25.08-1.84z"></path><path fill="#795548" d="M231.16 165.25H97.07c-.72 0-1.37-.4-1.69-1.04l-10.02-20.04-1.89-3.78v-6.11H15.49c-.16 0-.32.03-.47.07-.04.01-.08.02-.12.04-.12.04-.23.09-.34.15-.03.02-.06.03-.09.05-.13.08-.25.18-.35.29-.02.02-.04.05-.06.08-.08.1-.16.2-.22.32-.01.02-.03.04-.04.06L.2 162.52c-.29.59-.26 1.28.08 1.84.34.56.95.9 1.61.9H69.88c.72 0 1.37-.4 1.69-1.04l10.02-20.04 1.89-3.78v78.87H233.05c1.04 0 1.89.85 1.89 1.89v-55.9h-3.78zM17.38 219.27h-1.89c-1.04 0-1.89.85-1.89 1.89v25.5c0 1.04.85 1.89 1.89 1.89H83.48v-29.27H17.38z"></path></g></svg>