<svg xmlns="http://www.w3.org/2000/svg" viewBox="0 0 960 960" id="peer-to-peer-lending"><path fill="#ff871f" d="m496.16,314.54c72.47,10.87,121.32,85.69,109.1,167.12-1.15,7.66-2.8,15.11-4.91,22.31-2.41,8.24-5.42,16.16-8.96,23.69-2.44,5.17-5.12,10.17-8.04,14.96-28.5,46.85-78.96,74.65-131.43,66.78l-34.46-5.17c52.47,7.87,102.93-19.93,131.43-66.78,2.91-4.8,5.6-9.79,8.04-14.97,3.54-7.52,6.55-15.44,8.96-23.68,2.1-7.2,3.75-14.65,4.9-22.32,12.22-81.42-36.62-156.24-109.09-167.12l34.46,5.18Z"></path><path fill="#ffc45c" d="m461.7,309.36c72.47,10.88,121.31,85.7,109.09,167.12-1.15,7.67-2.8,15.12-4.9,22.32-2.41,8.24-5.42,16.16-8.96,23.68-2.44,5.18-5.13,10.17-8.04,14.97-28.5,46.85-78.96,74.65-131.43,66.78-72.47-10.88-121.32-85.7-109.1-167.12,12.22-81.43,80.87-138.62,153.34-127.75Z"></path><path d="m439.811,451.935c5.873,2.105,11.256,4.32,16.153,6.647,4.894,2.331,9.151,5.07,12.767,8.225,3.612,3.155,6.401,6.837,8.358,11.041,1.958,4.208,2.94,9.239,2.94,15.098,0,7.21-1.355,13.671-4.066,19.378-2.711,5.711-6.479,10.591-11.298,14.647-4.824,4.056-10.661,7.175-17.513,9.351-6.855,2.176-14.425,3.268-22.706,3.268l-2.714,15.773h-4.517l2.711-15.999c-8.887-.57-16.978-2.743-24.272-6.51-7.295-3.771-12.668-8.436-16.122-13.996l3.605-2.929c2.852,4.507,7.552,8.675,14.094,12.506,6.542,3.831,14.411,6.123,23.6,6.873l14.009-79.881c-5.123-1.803-9.908-3.683-14.351-5.641-4.443-1.954-8.323-4.323-11.637-7.105-3.316-2.781-5.915-6.168-7.795-10.154-1.884-3.986-2.824-8.837-2.824-14.555,0-7.221,1.503-13.541,4.517-18.956,3.014-5.415,6.968-9.964,11.865-13.65,4.894-3.687,10.355-6.506,16.382-8.464,6.024-1.954,12.048-3.081,18.076-3.383l2.711-15.548h4.517l-2.711,15.548c10.242.303,18.861,2.253,25.857,5.858,6.996,3.605,12.073,7.964,15.228,13.069l-3.605,3.155c-2.704-5.105-7.633-9.274-14.781-12.506-7.147-3.229-15.016-4.918-23.6-5.07l-12.879,73.909Zm8.221-73.909c-4.958.303-10.066,1.278-15.323,2.929-5.26,1.655-10.066,4.095-14.421,7.323-4.359,3.232-7.964,7.25-10.816,12.055-2.855,4.81-4.281,10.591-4.281,17.351,0,4.957.75,9.165,2.253,12.619,1.5,3.457,3.68,6.387,6.535,8.788,2.852,2.405,6.271,4.472,10.253,6.197,3.979,1.729,8.373,3.493,13.182,5.295l12.619-72.557Zm-22.759,157.508c7.21,0,13.858-.937,19.942-2.816,6.084-1.877,11.341-4.62,15.773-8.225,4.429-3.605,7.887-7.999,10.365-13.182s3.718-11.154,3.718-17.914c0-5.105-.901-9.538-2.704-13.295-1.803-3.753-4.32-7.021-7.549-9.802-3.232-2.778-7.062-5.218-11.492-7.323-4.433-2.102-9.203-4.056-14.309-5.859l-13.745,78.416Z"></path><circle cx="275.185" cy="184.61" r="100.513" fill="#40a4e0"></circle><circle cx="798.923" cy="367.154" r="112.103" fill="#00aaab"></circle><circle cx="146.256" cy="626.833" r="97.282" fill="#ff8ec1"></circle><circle cx="584.627" cy="767.846" r="108.058" fill="#b676ff"></circle><path d="M173.483 535.422c-.186 0-.374-.026-.561-.081-1.061-.309-1.669-1.419-1.36-2.479l73.56-252.3c.309-1.061 1.422-1.671 2.48-1.36 1.06.309 1.669 1.419 1.36 2.479l-73.56 252.3c-.254.874-1.053 1.441-1.919 1.441zM481.743 736.752c-.203 0-.409-.031-.613-.097l-242.85-78.12c-1.052-.338-1.63-1.465-1.292-2.516.338-1.052 1.465-1.628 2.516-1.292l242.85 78.12c1.052.338 1.63 1.465 1.292 2.516-.272.848-1.058 1.388-1.903 1.388zM635.591 674.542c-.318 0-.641-.076-.941-.237-.974-.521-1.341-1.733-.82-2.707l110.45-206.52c.521-.973 1.732-1.342 2.707-.82.974.521 1.341 1.733.82 2.707l-110.45 206.52c-.36.673-1.051 1.057-1.766 1.057zM693.042 332.252c-.218 0-.44-.036-.658-.112l-322.92-112.55c-1.043-.364-1.594-1.504-1.23-2.547.364-1.043 1.505-1.593 2.547-1.23l322.92 112.55c1.043.364 1.594 1.504 1.23 2.547-.288.825-1.062 1.342-1.889 1.342zM230.774 580.622c-.695 0-1.37-.363-1.739-1.01-.547-.959-.213-2.181.747-2.728l89.636-51.12c.959-.547 2.181-.213 2.728.747.547.959.213 2.181-.747 2.728l-89.636 51.12c-.312.178-.653.263-.989.263zM540.594 671.142c-.765 0-1.496-.441-1.828-1.186l-29.372-65.83c-.45-1.009.003-2.191 1.012-2.642 1.009-.447 2.192.002 2.642 1.012l29.372 65.83c.45 1.009-.003 2.191-1.012 2.642-.265.118-.542.174-.814.174zM602.142 418.705c-.895 0-1.709-.605-1.938-1.512-.27-1.071.38-2.158 1.451-2.428l88.06-22.172c1.069-.271 2.158.38 2.428 1.451.27 1.071-.38 2.158-1.451 2.428l-88.06 22.172c-.164.042-.328.061-.49.061zM368.727 335.689c-.666 0-1.316-.332-1.696-.938l-40.112-63.927c-.587-.936-.304-2.17.631-2.757.936-.585 2.171-.304 2.757.631l40.112 63.927c.587.936.304 2.17-.631 2.757-.33.207-.698.306-1.061.306z"></path></svg>