<svg xmlns="http://www.w3.org/2000/svg" viewBox="0 0 64 64" id="recycle-bin"><path fill="#FFF" d="M13 18h38v36H13z"></path><path fill="#FFF" d="M51 18H13v36h38V18zM24 50h-4V22h4v28zm10 0h-4V22h4v28zm6 0V22h4v28h-4z"></path><path fill="#399BB9" d="M54 17.834v-9H10v9h41z"></path><path fill="#F15439" d="M27 3h10v6H27z"></path><path fill="#399BB9" d="M15.111 61h33.778C50.055 61 51 60.144 51 59.089V54H13v5.089c0 1.055.945 1.911 2.111 1.911z"></path><path fill="#F15439" d="M20 22h4v28h-4zM30 22h4v28h-4zM40 22h4v28h-4z"></path><path d="M48.889 62H15.111C13.396 62 12 60.694 12 59.089V17h40v42.089C52 60.694 50.604 62 48.889 62zM14 19v40.089c0 .502.499.911 1.111.911h33.777c.613 0 1.112-.409 1.112-.911V19H14z"></path><path d="M55 19H9V8h46v11zm-44-2h42v-7H11v7z"></path><path d="M38 10H26V2h12v8zM28 8h8V4h-8v4zM13 53h38v2H13zM25 51h-6V21h6v30zm-4-2h2V23h-2v26zM35 51h-6V21h6v30zm-4-2h2V23h-2v26zM45 51h-6V21h6v30zm-4-2h2V23h-2v26z"></path></svg>