<svg xmlns="http://www.w3.org/2000/svg" width="24" height="24" fill="none" viewBox="0 0 24 24" id="referee"><path fill="#4DC4FF" d="M12 1.25C8.82436 1.25 6.25 3.82436 6.25 7C6.25 10.1756 8.82436 12.75 12 12.75C15.1756 12.75 17.75 10.1756 17.75 7C17.75 3.82436 15.1756 1.25 12 1.25Z"></path><path fill="#45B0E5" fill-rule="evenodd" d="M12 1.25V12.75C8.82436 12.75 6.25 10.1756 6.25 7C6.25 3.82436 8.82436 1.25 12 1.25Z" clip-rule="evenodd"></path><path fill="#5E94FF" d="M7 13.25C4.37665 13.25 2.25 15.3766 2.25 18V20C2.25 21.5188 3.48122 22.75 5 22.75H19C20.5188 22.75 21.75 21.5188 21.75 20V18C21.75 15.3766 19.6234 13.25 17 13.25H7Z"></path><path fill="#5485E5" fill-rule="evenodd" d="M12 13.25V22.75H5C3.48122 22.75 2.25 21.5188 2.25 20V18C2.25 15.3766 4.37665 13.25 7 13.25H12Z" clip-rule="evenodd"></path><path fill="#ECEFF1" d="M9.00001 13.25C8.70711 13.25 8.44102 13.4205 8.31863 13.6866C8.19624 13.9527 8.23995 14.2657 8.43057 14.4881L11.25 17.7774V22.75H12.75V17.7774L15.5695 14.4881C15.7601 14.2657 15.8038 13.9527 15.6814 13.6866C15.559 13.4205 15.2929 13.25 15 13.25H9.00001Z"></path><path fill="#CFD8DC" fill-rule="evenodd" d="M12 13.25V22.75H11.25V17.7774L8.43057 14.4881C8.23995 14.2657 8.19624 13.9527 8.31863 13.6866C8.44102 13.4205 8.70711 13.25 9.00001 13.25H12Z" clip-rule="evenodd"></path></svg>