<svg xmlns="http://www.w3.org/2000/svg" viewBox="0 0 128 128" id="star"><path fill="#22323f" d="M21.7 16c-1 .9-2.1 1.9-3 2.9-.8.8-.8 2 0 2.8.4.4.9.6 1.4.6.5 0 1-.2 1.4-.6.9-.9 1.9-1.8 2.9-2.7.8-.7.9-2 .2-2.8-.8-.9-2.1-1-2.9-.2zm-8.6 9.1c-.8 1.1-1.7 2.3-2.4 3.4-.6.9-.4 2.2.6 2.8.3.2.7.3 1.1.3.6 0 1.3-.3 1.7-.9.7-1.1 1.5-2.2 2.3-3.2.7-.9.5-2.1-.4-2.8-.9-.6-2.2-.4-2.9.4zM31.9 8.6c-1.2.7-2.4 1.4-3.5 2.2-.9.6-1.2 1.9-.5 2.8.4.6 1 .9 1.7.9.4 0 .8-.1 1.1-.3l3.3-2.1c1-.6 1.3-1.8.7-2.7-.7-1-1.9-1.3-2.8-.8zM79.4 6c.2 0 .3.1.5.1.9 0 1.7-.6 1.9-1.5.3-1.1-.4-2.2-1.4-2.4-1.4-.4-2.7-.7-4.1-.9-1.1-.3-2.1.4-2.3 1.5-.2 1.1.5 2.1 1.6 2.3 1.2.3 2.5.6 3.8.9zM2 66.1c1.1 0 2-.9 2-2V64c0-1.3 0-2.6.1-3.8.1-1.1-.8-2.1-1.9-2.1C1.1 58 .1 58.9.1 60 0 61.3 0 62.6 0 64v.1c0 1.1.9 2 2 2zm3.2 9.7c-.3-1.3-.5-2.6-.6-3.9-.1-1.1-1.2-1.9-2.2-1.7-1.1.1-1.9 1.1-1.7 2.2.2 1.4.4 2.8.7 4.1.2 1 1 1.6 2 1.6h.4c.9-.2 1.6-1.2 1.4-2.3zm3.3-34.7c.5-1.2 1-2.4 1.6-3.6.5-1 .1-2.2-.9-2.7s-2.2-.1-2.7.9c-.6 1.2-1.2 2.5-1.7 3.8-.4 1 .1 2.2 1.1 2.6.2.1.5.2.8.2.7.1 1.5-.4 1.8-1.2zm-3.9 5c-1.1-.3-2.2.4-2.4 1.4-.4 1.3-.7 2.7-.9 4.1-.3 1.1.4 2.2 1.5 2.4h.4c.9 0 1.8-.7 2-1.6.2-1.3.5-2.6.9-3.8.2-1.1-.5-2.2-1.5-2.5zM43.3 3.4c-1.3.4-2.6.9-3.9 1.5-1 .4-1.5 1.6-1.1 2.6.3.8 1.1 1.2 1.8 1.2.3 0 .5 0 .8-.2 1.2-.5 2.4-1 3.7-1.4 1-.4 1.6-1.5 1.2-2.5-.3-1-1.5-1.5-2.5-1.2zM110.5 25c.5 0 .9-.2 1.3-.5.8-.7.9-2 .2-2.8-.9-1-1.9-2.1-2.9-3-.8-.8-2-.8-2.8 0-.8.8-.8 2 0 2.8.9.9 1.8 1.9 2.7 2.9.4.4.9.6 1.5.6zM55.5.6c-1.4.2-2.8.4-4.1.7-1.1.2-1.8 1.3-1.6 2.4.2 1 1 1.6 2 1.6h.4c1.3-.3 2.6-.5 3.9-.6 1.1-.1 1.9-1.2 1.7-2.2S56.6.4 55.5.6zm44.9 15.7c.4.3.8.4 1.2.4.6 0 1.2-.3 1.6-.8.7-.9.5-2.1-.4-2.8-1.1-.8-2.3-1.7-3.4-2.4-.9-.6-2.2-.4-2.8.6-.6.9-.4 2.2.6 2.8 1.1.6 2.1 1.4 3.2 2.2zM8.6 87c-.5-1.2-1-2.4-1.4-3.7-.4-1-1.5-1.6-2.5-1.2-1 .4-1.6 1.5-1.2 2.5.4 1.3.9 2.6 1.5 3.9.3.8 1.1 1.2 1.8 1.2.3 0 .5 0 .8-.2.9-.3 1.4-1.4 1-2.5zM68 .1C66.7 0 65.3 0 64 0h-.2c-1.1 0-2 .9-2 2s.9 2 2 2h.2c1.3 0 2.5 0 3.8.1h.1c1 0 1.9-.8 2-1.9 0-1.1-.8-2-1.9-2.1zm54.8 52c.3 1.3.5 2.6.6 3.9.1 1 1 1.7 2 1.7h.3c1.1-.1 1.9-1.2 1.7-2.2-.2-1.4-.4-2.8-.7-4.1-.2-1.1-1.3-1.8-2.4-1.6-1 .1-1.7 1.2-1.5 2.3zm.3-12.8c-.4-1-1.6-1.5-2.6-1.1-1 .4-1.5 1.6-1.1 2.6.5 1.2 1 2.4 1.4 3.7.3.8 1.1 1.4 1.9 1.4.2 0 .4 0 .6-.1 1-.4 1.6-1.5 1.2-2.5-.4-1.4-.9-2.7-1.4-4zM90.4 10.1c.3.1.6.2.9.2.7 0 1.5-.4 1.8-1.1.5-1 .1-2.2-.9-2.7-1.3-.6-2.5-1.2-3.8-1.7-1-.4-2.2.1-2.6 1.1-.4 1 .1 2.2 1.1 2.6 1.1.5 2.3 1 3.5 1.6zm26.3 86.7c-.9-.6-2.2-.4-2.8.5-.7 1.1-1.5 2.2-2.3 3.2-.7.9-.5 2.1.4 2.8.4.3.8.4 1.2.4.6 0 1.2-.3 1.6-.8.8-1.1 1.7-2.2 2.4-3.4.6-.9.4-2.1-.5-2.7zm2.6-65c-.7-1.2-1.4-2.4-2.2-3.5-.6-.9-1.9-1.2-2.8-.5-.9.6-1.2 1.9-.5 2.8l2.1 3.3c.4.6 1 1 1.7 1 .3 0 .7-.1 1-.3 1-.6 1.3-1.8.7-2.8zm-12.9 74.6c-.9.9-1.9 1.8-2.9 2.7-.8.7-.9 2-.2 2.8.4.5.9.7 1.5.7.5 0 .9-.2 1.3-.5 1-.9 2.1-1.9 3.1-2.9.8-.8.8-2 0-2.8-.7-.8-2-.8-2.8 0zM126 61.8c-1.1 0-2 .9-2 2v.2c0 1.3 0 2.6-.1 3.9-.1 1.1.8 2.1 1.9 2.1h.1c1 0 1.9-.8 2-1.9.1-1.4.1-2.8.1-4.2v-.2c0-1-.9-1.9-2-1.9zm-28.6 52.1-3.3 2.1c-1 .6-1.3 1.8-.7 2.7.4.6 1 1 1.7 1 .3 0 .7-.1 1-.3 1.2-.7 2.4-1.4 3.6-2.2.9-.6 1.2-1.9.5-2.8s-1.9-1.1-2.8-.5zm27.8-39.8c-1.1-.2-2.1.5-2.3 1.6-.3 1.3-.6 2.6-.9 3.8-.3 1.1.3 2.2 1.4 2.4.2 0 .3.1.5.1.9 0 1.7-.6 1.9-1.5.4-1.3.7-2.7.9-4.1.3-1-.4-2.1-1.5-2.3zm-3.1 11.8c-1-.4-2.2.1-2.6 1.1-.5 1.2-1 2.4-1.6 3.6-.5 1-.1 2.2.9 2.7.3.1.6.2.9.2.7 0 1.4-.4 1.8-1.1.6-1.2 1.2-2.5 1.7-3.8.4-1.1-.1-2.3-1.1-2.7zm-81 33.6c-1.2-.5-2.4-1-3.6-1.6-1-.5-2.2-.1-2.7.9s-.1 2.2.9 2.7c1.3.6 2.5 1.2 3.8 1.7.3.1.5.2.8.2.8 0 1.5-.5 1.8-1.2.5-1.1 0-2.3-1-2.7zm-29-25.4c-.6-1-1.8-1.3-2.7-.7-1 .6-1.3 1.8-.7 2.7.7 1.2 1.4 2.4 2.2 3.5.4.6 1 .9 1.7.9.4 0 .8-.1 1.1-.3.9-.6 1.2-1.9.5-2.8-.8-1.1-1.5-2.2-2.1-3.3zm40.3 28.8c-1.3-.3-2.6-.5-3.8-.9-1.1-.3-2.2.4-2.4 1.4-.3 1.1.4 2.2 1.4 2.4 1.3.4 2.7.7 4.1.9h.4c.9 0 1.8-.7 2-1.6 0-1-.7-2-1.7-2.2zm-21.7-9c-1.1-.7-2.2-1.5-3.2-2.3-.9-.7-2.1-.5-2.8.4-.7.9-.5 2.1.4 2.8 1.1.8 2.3 1.7 3.4 2.4.3.2.7.3 1.1.3.6 0 1.3-.3 1.7-.9.6-.8.3-2.1-.6-2.7zm-11.8-10.3c-.7-.8-2-.9-2.8-.2-.8.7-.9 2-.2 2.8.9 1 1.9 2.1 2.9 3 .4.4.9.6 1.4.6.5 0 1-.2 1.4-.6.8-.8.8-2 0-2.8-.9-.8-1.8-1.8-2.7-2.8zM64.1 124c-.1 0-.1 0 0 0-1.4 0-2.6 0-3.9-.1-1.1-.1-2.1.8-2.1 1.9-.1 1.1.8 2.1 1.9 2.1 1.4.1 2.7.1 4.1.1v-2 2c1.1 0 2-.9 2-2s-.9-2-2-2zm11.7-1.2c-1.3.3-2.6.5-3.9.6-1.1.1-1.9 1.1-1.7 2.2.1 1 1 1.7 2 1.7h.3c1.4-.2 2.8-.4 4.1-.7 1.1-.2 1.8-1.3 1.6-2.4-.3-.9-1.4-1.6-2.4-1.4zm11.2-3.4c-1.2.5-2.4 1-3.7 1.4-1 .4-1.6 1.5-1.3 2.5.3.8 1.1 1.4 1.9 1.4.2 0 .4 0 .6-.1 1.3-.4 2.6-.9 3.9-1.5 1-.4 1.5-1.6 1.1-2.6-.3-1-1.5-1.5-2.5-1.1zm21.3-72.3h-31l-9.5-29.4c-.5-1.7-2.1-2.8-3.8-2.8s-3.3 1.1-3.8 2.8l-9.5 29.4H19.8c-1.7 0-3.3 1.1-3.8 2.8-.5 1.7 0 3.5 1.5 4.5l25 18.2-9.6 29.4c-.5 1.7.1 3.5 1.5 4.5.7.5 1.5.8 2.4.8.8 0 1.6-.3 2.3-.8l25-18.2 25 18.2c.7.5 1.5.8 2.3.8.8 0 1.7-.3 2.4-.8 1.4-1 2-2.8 1.5-4.5l-9.6-29.4 24.9-18.1c1-.7 1.7-1.9 1.7-3.3 0-2.3-1.8-4.1-4-4.1zM66 25.1l8.5 26h26.8l-31 9c-1.1-1.4-2.6-2.4-4.3-2.8V25.1zM68 65c0 2.2-1.8 4-4 4s-4-1.8-4-4 1.8-4 4-4 4 1.8 4 4zM53.5 51.1l8.5-26v32.2c-1.7.4-3.2 1.4-4.3 2.8l-30.3-9h26.1zm-6.4 19.8L24.2 54.3l31.9 9.5c-.1.4-.1.8-.1 1.2 0 1.7.6 3.3 1.5 4.7L39.1 95.5l8-24.6zM64 83.2l-23.3 16.9 19.9-27.9c1 .5 2.2.8 3.4.8 1.2 0 2.3-.3 3.3-.8l19.2 27.4L64 83.2zm16.9-12.3 8.3 25.4-18.7-26.6c1-1.3 1.5-2.9 1.5-4.7 0-.4 0-.8-.1-1.2l31.5-9.2-22.5 16.3z"></path><circle cx="64" cy="65" r="4" fill="#e71e26"></circle><path fill="#f6c204" d="m39.1 95.5 8-24.5-22.9-16.7 31.9 9.5c-.1.4-.1.8-.1 1.2 0 1.7.6 3.3 1.5 4.7L39.1 95.5zM62 25.1v32.2c-1.7.4-3.2 1.4-4.3 2.8l-30.3-9h26.2l8.4-26zm39.3 26-31 9c-1.1-1.4-2.6-2.4-4.3-2.8V25.1l8.5 26h26.8zM80.9 70.9l8.3 25.4-18.7-26.6c1-1.3 1.5-2.9 1.5-4.7 0-.4 0-.8-.1-1.2l31.5-9.2-22.5 16.3zm5.7 28.7L64 83.2l-23.3 16.9 19.9-27.9c1 .5 2.2.8 3.4.8 1.2 0 2.3-.3 3.3-.8l19.3 27.4z"></path><path fill="#a31620" d="M68 65c0 2.2-1.8 4-4 4s-4-1.8-4-4c0-.4 0-.7.1-1 .4 1.7 2 3 3.9 3s3.4-1.3 3.9-3c.1.3.1.6.1 1z" opacity=".6"></path><path fill="#a57e04" d="M86.6 99.6 64 83.2l-23.3 16.9 3-4.1L64 81.2l19.7 14.3z" opacity=".6"></path><path fill="#fcd354" d="m101.3 51.1-6.9 2H74.5l-8.5-26v-2l8.5 26zM62 25.1v2l-8.5 26H34.1l-6.7-2h26.1z" opacity=".6"></path></svg>