<svg xmlns="http://www.w3.org/2000/svg" viewBox="0 0 24 24" id="star-alliance"><path fill="#404041" d="m1.871 21.181 4.428-2.397.261-4.861s-3.833 2.609-4.689 7.258z"></path><path fill="#D0D2D3" d="m6.583 13.923-.282 4.857 4.286 2.531c.001 0-.302-4.319-4.004-7.388z"></path><path fill="#808184" d="m10.577 21.326-4.278-2.542-4.416 2.415s4.147 1.82 8.694.127z"></path><path fill="#404041" d="m2.639 14.541 1.015-4.818L.025 6.36s-.461 4.519 2.614 8.181z"></path><path fill="#D0D2D3" d="m.04 6.343 3.612 3.376L8.427 8.22S4.854 5.625.04 6.343z"></path><path fill="#808184" d="M8.432 8.238 3.654 9.724l-.993 4.821c0-.001 4.127-1.861 5.771-6.307z"></path><path fill="#404041" d="M14.586 8.403 11.584 4.44l-5.007.35s3.145 3.365 8.009 3.613z"></path><path fill="#808184" d="m6.574 4.768 5.005-.33L13.639 0S9.257.826 6.574 4.768z"></path><path fill="#D0D2D3" d="M13.656.008 11.584 4.44l3.018 3.949c.001 0 1.349-4.215-.946-8.381z"></path><path fill="#404041" d="m16.051 14.014 2.959-3.993-1.892-4.509s-2.327 3.941-1.067 8.502z"></path><path fill="#D0D2D3" d="m17.14 5.503 1.871 4.514 4.989.526s-2.165-3.785-6.86-5.04z"></path><path fill="#808184" d="m23.997 10.561-4.987-.54-2.94 4.005s4.551-.06 7.927-3.465z"></path><path fill="#404041" d="m17.52 24-1.174-4.783-4.754-1.566c0-.001 1.547 4.285 5.928 6.349z"></path><path fill="#D0D2D3" d="m11.599 17.629 4.743 1.585 3.678-3.311c.001-.001-4.368-.894-8.421 1.726z"></path><path fill="#808184" d="m20.032 15.916-3.686 3.3 1.196 4.777c0 .001 2.933-3.374 2.49-8.077z"></path></svg>