<svg xmlns="http://www.w3.org/2000/svg" width="64" height="64" fill="none" id="working-capital"><path fill="#D0D2E0" fill-rule="evenodd" d="M40.355 9.533a4 4 0 0 0-4-4h-8.716a4 4 0 0 0-4 4v3.268c0 .961-.564 1.826-1.396 2.308-.833.482-1.86.535-2.694.054l-2.83-1.635a4 4 0 0 0-5.465 1.465L6.897 22.54a4 4 0 0 0 1.465 5.464l2.833 1.636c.832.48 1.3 1.398 1.3 2.36 0 .96-.467 1.878-1.3 2.359L8.36 35.996a4 4 0 0 0-1.465 5.464l4.359 7.548a4 4 0 0 0 5.464 1.464l2.83-1.634c.834-.481 1.86-.428 2.694.054.832.481 1.396 1.346 1.396 2.308v3.267a4 4 0 0 0 4 4h8.716a4 4 0 0 0 4-4V51.2c0-.962.563-1.827 1.395-2.308.834-.483 1.86-.535 2.694-.054l2.83 1.634a4 4 0 0 0 5.465-1.464l4.358-7.548a4 4 0 0 0-1.464-5.464l-2.834-1.636c-.832-.481-1.3-1.398-1.3-2.36 0-.961.468-1.878 1.3-2.36l2.834-1.635a4 4 0 0 0 1.464-5.464l-4.358-7.548a4 4 0 0 0-5.464-1.465l-2.83 1.635c-.834.481-1.861.428-2.695-.054-.832-.482-1.395-1.347-1.395-2.308V9.533Z" clip-rule="evenodd"></path><path fill="#D0D2E0" fill-rule="evenodd" d="M36.355 8.2h-8.716c-.737 0-1.334.597-1.334 1.333v3.268c0 2.034-1.18 3.721-2.727 4.616-1.556.9-3.605 1.07-5.362.055l-2.83-1.634a1.333 1.333 0 0 0-1.822.488l-4.358 7.548a1.333 1.333 0 0 0 .488 1.822l2.833 1.635c1.757 1.015 2.634 2.875 2.634 4.67 0 1.793-.877 3.654-2.634 4.668l-2.833 1.636a1.333 1.333 0 0 0-.488 1.821l4.358 7.549a1.333 1.333 0 0 0 1.821.488l2.83-1.634c1.758-1.015 3.807-.846 5.363.055 1.547.894 2.727 2.582 2.727 4.616v3.267c0 .737.597 1.334 1.334 1.334h8.716c.736 0 1.333-.597 1.333-1.334V51.2c0-2.034 1.18-3.722 2.727-4.616 1.556-.9 3.605-1.07 5.363-.055l2.83 1.634c.638.368 1.453.15 1.821-.488l4.358-7.549a1.333 1.333 0 0 0-.488-1.821l-2.833-1.636c-1.757-1.014-2.634-2.875-2.634-4.669 0-1.794.877-3.654 2.634-4.669l2.833-1.635a1.333 1.333 0 0 0 .488-1.822l-4.358-7.548a1.333 1.333 0 0 0-1.821-.488l-2.83 1.634c-1.758 1.015-3.807.845-5.363-.055-1.546-.895-2.727-2.583-2.727-4.616V9.533c0-.736-.597-1.333-1.333-1.333Zm0-2.667a4 4 0 0 1 4 4v3.268c0 .961.563 1.826 1.395 2.308.834.482 1.86.535 2.694.054l2.83-1.635a4 4 0 0 1 5.465 1.465l4.358 7.548a4 4 0 0 1-1.464 5.464l-2.834 1.636c-.832.48-1.3 1.398-1.3 2.36 0 .96.468 1.878 1.3 2.359l2.834 1.636a4 4 0 0 1 1.464 5.464l-4.358 7.548a4 4 0 0 1-5.464 1.464l-2.83-1.634c-.834-.481-1.861-.428-2.695.054-.832.481-1.395 1.346-1.395 2.308v3.267a4 4 0 0 1-4 4h-8.716a4 4 0 0 1-4-4V51.2c0-.962-.564-1.827-1.396-2.308-.833-.483-1.86-.535-2.694-.054l-2.83 1.634a4 4 0 0 1-5.465-1.464L6.897 41.46a4 4 0 0 1 1.465-5.464l2.833-1.636c.832-.481 1.3-1.398 1.3-2.36 0-.961-.467-1.878-1.3-2.36L8.36 28.006a4 4 0 0 1-1.465-5.464l4.359-7.548a4 4 0 0 1 5.464-1.465l2.83 1.635c.834.481 1.86.428 2.694-.054.832-.482 1.396-1.347 1.396-2.308V9.533a4 4 0 0 1 4-4h8.716Z" clip-rule="evenodd"></path><path fill="#959AB4" d="M44 31.999c0 6.627-5.373 12-12 12-6.628 0-12-5.373-12-12s5.372-12 12-12c6.627 0 12 5.373 12 12Z"></path><path fill="#959AB4" fill-rule="evenodd" d="M32 21.333c-5.891 0-10.667 4.775-10.667 10.666S26.11 42.666 32 42.666c5.89 0 10.666-4.776 10.666-10.667 0-5.89-4.775-10.666-10.666-10.666ZM18.666 31.999c0-7.363 5.97-13.333 13.334-13.333s13.333 5.97 13.333 13.333c0 7.364-5.97 13.334-13.333 13.334-7.364 0-13.334-5.97-13.334-13.334Z" clip-rule="evenodd"></path><path fill="#2B3151" fill-rule="evenodd" d="M25.93 33.01c0-.736.597-1.333 1.333-1.333h2.526a1.333 1.333 0 1 1 0 2.666h-2.526a1.333 1.333 0 0 1-1.333-1.333zm0-7.579c0-.736.597-1.333 1.333-1.333h9.474a1.333 1.333 0 1 1 0 2.666h-9.474a1.333 1.333 0 0 1-1.333-1.333zm0 3.79c0-.737.597-1.334 1.333-1.334h9.474a1.333 1.333 0 0 1 0 2.666h-9.474a1.333 1.333 0 0 1-1.333-1.333z" clip-rule="evenodd"></path><path fill="#2B3151" fill-rule="evenodd" d="M26.32 32.067c.52-.52 1.365-.52 1.886 0l6.699 6.699a1.333 1.333 0 0 1-1.886 1.885l-6.699-6.699a1.333 1.333 0 0 1 0-1.885Z" clip-rule="evenodd"></path><path fill="#2B3151" fill-rule="evenodd" d="M32.246 29.22c0-1.258-1.139-2.456-2.772-2.456v-2.666c2.9 0 5.438 2.195 5.438 5.123 0 2.927-2.537 5.122-5.438 5.122v-2.666c1.633 0 2.772-1.198 2.772-2.456Z" clip-rule="evenodd"></path></svg>