<svg xmlns="http://www.w3.org/2000/svg" data-name="Layer 1" viewBox="0 0 512 512" id="worldwide-value"><path fill="#66c1ff" d="M504.5,256q0,3.765-.10986,7.5a247.621,247.621,0,0,1-64.31006,159.43994q-5.20533,5.73011-10.76,11.14014A247.69818,247.69818,0,0,1,263.5,504.39014q-3.735.10473-7.5.10986-3.765,0-7.5-.10986A247.69818,247.69818,0,0,1,82.67993,434.08008q-5.54993-5.40015-10.76-11.14014A247.62016,247.62016,0,0,1,7.61,263.5q-.10492-3.735-.11-7.5,0-3.765.11-7.5A247.64,247.64,0,0,1,71.89,89.08984Q77.095,83.36011,82.64,77.96A247.65365,247.65365,0,0,1,248.5,7.60986Q252.235,7.50513,256,7.5q3.765,0,7.5.10986A247.65306,247.65306,0,0,1,429.35986,77.96q5.53528,5.40015,10.75,11.12988A247.64022,247.64022,0,0,1,504.39014,248.5Q504.49487,252.235,504.5,256Z"></path><ellipse cx="256" cy="256" fill="#4eb7ff" rx="150.671" ry="248.5"></ellipse><path fill="#8cd0ff" d="M440.10986 89.08984a7.43341 7.43341 0 0 1-1.92993 1.3003C389.97 113.12012 328.2 126.02 263.5 126.93994c-2.49.04-5 .06006-7.5.06006s-5.01-.02-7.5-.06006c-64.69995-.91992-126.47-13.81982-174.67993-36.5498A7.43632 7.43632 0 0 1 71.89 89.08984Q77.095 83.36011 82.64 77.96c45.91 21.11011 104.43006 33.08008 165.86 33.97q3.75.07507 7.5.07007 3.75 0 7.5-.07007c61.42993-.88989 119.95-12.85986 165.85986-33.97Q434.89514 83.36011 440.10986 89.08984zM440.08008 422.93994q-5.20533 5.73011-10.76 11.14014C383.41992 412.99 324.90991 401.01 263.5 400.12012q-3.75-.07508-7.5-.07007-3.75 0-7.5.07007c-61.40991.88989-119.91992 12.86987-165.82007 33.96q-5.54993-5.40015-10.76-11.14014a7.63828 7.63828 0 0 1 1.90015-1.28c48.21-22.72 109.98-35.62988 174.67993-36.55 2.49-.03979 5-.05981 7.5-.05981s5.01.02 7.5.05981c64.7.92017 126.47 13.83008 174.67993 36.55005A7.63589 7.63589 0 0 1 440.08008 422.93994z"></path><path fill="#8cd0ff" d="M263.5,7.60986V504.39014q-3.735.10473-7.5.10986-3.765,0-7.5-.10986V7.60986Q252.235,7.50513,256,7.5,259.765,7.5,263.5,7.60986Z"></path><path fill="#8cd0ff" d="M504.5,256q0,3.765-.10986,7.5H7.61q-.10492-3.735-.11-7.5,0-3.765.11-7.5H504.39014Q504.49487,252.235,504.5,256Z"></path><path fill="#fff" d="M358.53433,291.881c-2.88034,55.41153-45.93166,100.4669-102.59123,100.4669S153.35186,347.36737,153.35186,291.881c0-71.947,102.59124-172.229,102.59124-172.229S362.46892,216.18838,358.53433,291.881Z"></path><path fill="#eee" d="M255.94312,119.6521s-9.06629,8.86255-21.80762,23.207c31.09851,33.23071,82.14477,96.19727,79.39892,149.022-2.48632,47.83033-34.90576,87.93872-80.1698,98.02a105.00663,105.00663,0,0,0,22.5785,2.44678c56.65954,0,99.71093-45.05542,102.5913-100.4668C362.469,216.18848,255.94312,119.6521,255.94312,119.6521Z"></path><path fill="#4eb7ff" d="M283.49633 242.84333h-55a7.5 7.5 0 0 1 0-15h55a7.5 7.5 0 0 1 0 15zM283.49633 272.84333h-55a7.5 7.5 0 0 1 0-15h55a7.5 7.5 0 0 1 0 15z"></path><path fill="#4eb7ff" d="M268.49731,344.72224a7.48068,7.48068,0,0,1-5.42432-2.31934l-40-41.87891a7.50028,7.50028,0,0,1,5.42334-12.68066h10a22.5,22.5,0,1,0,0-45h-10a7.5,7.5,0,0,1,0-15h10a37.50214,37.50214,0,0,1,6.92285,74.35937l28.50049,29.83887a7.5,7.5,0,0,1-5.42236,12.68067Z"></path></svg>